<svg id="add-light" xmlns="http://www.w3.org/2000/svg" width="26.388" height="26.383" viewBox="0 0 26.388 26.383">
  <g id="Group_700" data-name="Group 700">
    <path id="Path_422" data-name="Path 422" d="M26.387,13.274q0,4.434,0,8.867a3.873,3.873,0,0,1-4.245,4.238q-8.947.007-17.893,0A3.885,3.885,0,0,1,0,22.132Q0,13.187,0,4.241A3.884,3.884,0,0,1,4.257,0Q13.2,0,22.15,0A3.873,3.873,0,0,1,26.386,4.25q.006,4.512,0,9.024M24.5,13.231q0-4.554,0-9.107c0-1.587-.651-2.234-2.249-2.235q-9.069-.006-18.138,0c-1.539,0-2.219.672-2.221,2.194q-.009,9.107,0,18.214c0,1.525.679,2.194,2.219,2.195q9.069.008,18.138,0c1.6,0,2.248-.648,2.251-2.233q.008-4.514,0-9.029" transform="translate(0 0)" fill="#1e3556"/>
    <path id="Path_423" data-name="Path 423" d="M24.027,28.473c-.655,0-1.309,0-1.964,0s-1.093-.29-1.072-.971c.019-.629.456-.908,1.062-.91,1.335-.005,2.671-.021,4.005.008.45.009.578-.125.568-.57-.028-1.282,0-2.565-.012-3.848,0-.65.186-1.157.919-1.223.626-.056.962.384.968,1.231.008,1.256.029,2.514-.011,3.769-.017.532.161.655.662.642,1.256-.034,2.513-.018,3.77-.009.835.007,1.263.352,1.219.984-.053.764-.587.9-1.222.9-1.283,0-2.565.016-3.848-.011-.438-.009-.588.108-.578.565.029,1.308.02,2.618.007,3.927-.008.792-.346,1.2-.962,1.152-.69-.051-.919-.51-.919-1.137,0-1.309-.016-2.618.009-3.926.008-.43-.095-.606-.557-.58-.679.038-1.361.01-2.041.009" transform="translate(-14.365 -14.339)" fill="#1e3556"/>
  </g>
</svg>
