<svg id="clishcoin-light" xmlns="http://www.w3.org/2000/svg" xmlns:xlink="http://www.w3.org/1999/xlink" width="29.292" height="25.5" viewBox="0 0 29.292 25.5">
  <defs>
    <clipPath id="clip-path">
      <rect id="Rectangle_4666" data-name="Rectangle 4666" width="29.292" height="25.5" fill="#1e3556"/>
    </clipPath>
  </defs>
  <g id="Group_702" data-name="Group 702" clip-path="url(#clip-path)">
    <path id="Path_426" data-name="Path 426" d="M16.276,25.5q-5.607,0-11.215,0C1.812,25.495,0,23.687,0,20.443Q0,10.95,0,1.457A3.217,3.217,0,0,1,.071.627.815.815,0,0,1,1,0a.81.81,0,0,1,.8.69,4.427,4.427,0,0,1,.038.835q0,9.417,0,18.834c0,2.272,1.037,3.306,3.315,3.306l22.658,0a3.89,3.89,0,0,1,.76.031.833.833,0,0,1,.721.93.817.817,0,0,1-.734.841,4.205,4.205,0,0,1-.685.025h-11.6" transform="translate(0 0)" fill="#1e3556"/>
    <path id="Path_427" data-name="Path 427" d="M27.547,8.131a4.239,4.239,0,0,1,0,.533A1.085,1.085,0,0,0,28.287,10a1.85,1.85,0,0,1,1.073,1.805q.042,3.241,0,6.484a2.019,2.019,0,0,1-1.327,1.963.687.687,0,0,0-.5.8c.03.711.015,1.424,0,2.136-.01.6-.3.973-.932.965a.848.848,0,0,1-.888-.936q-.033-1.105,0-2.212a.606.606,0,0,0-.425-.685,2.226,2.226,0,0,1-1.413-2.232c0-2.034,0-4.069,0-6.1A2.176,2.176,0,0,1,25.27,9.816a.651.651,0,0,0,.45-.747c-.021-.686-.012-1.373,0-2.059.008-.619.271-1.055.944-1.04.628.013.882.425.885,1.017,0,.381,0,.763,0,1.144m-1.831,7c0,.962.005,1.924,0,2.887,0,.664.433.691.928.692s.913-.043.908-.708q-.019-2.924,0-5.849c.005-.649-.368-.733-.888-.733s-.967.047-.953.749c.02.987,0,1.975.005,2.963" transform="translate(-16.555 -4.138)" fill="#1e3556"/>
    <path id="Path_428" data-name="Path 428" d="M49.59,2.157c0-.406-.02-.814,0-1.219A.858.858,0,0,1,50.5.018a.847.847,0,0,1,.91.911,10.654,10.654,0,0,1,0,1.294c-.063.854-.05,1.574.961,1.99a1.782,1.782,0,0,1,.868,1.758c.017,1.5.022,3,0,4.495a2.058,2.058,0,0,1-1.346,2.027.686.686,0,0,0-.482.8c.022.71.012,1.422,0,2.133a.911.911,0,1,1-1.82.013q-.033-1.1,0-2.209a.6.6,0,0,0-.427-.681,2.225,2.225,0,0,1-1.411-2.23c0-1.4.01-2.793,0-4.19a2.246,2.246,0,0,1,1.437-2.288.547.547,0,0,0,.4-.622c-.022-.354-.005-.711-.005-1.066h0m0,6.02c0,.66.021,1.32-.006,1.978-.028.676.349.8.915.794.546,0,.945-.076.931-.773-.027-1.319-.022-2.638,0-3.957.01-.637-.335-.76-.871-.753s-.988.019-.97.733c.016.659,0,1.319,0,1.978" transform="translate(-33.102 -0.012)" fill="#1e3556"/>
    <path id="Path_429" data-name="Path 429" d="M75.3,20.006a4.348,4.348,0,0,1,0,.533,1.091,1.091,0,0,0,.737,1.342,1.928,1.928,0,0,1,1.086,1.876q.043,1.37,0,2.743a2.042,2.042,0,0,1-1.3,1.977.736.736,0,0,0-.523.856c.026.685.01,1.371,0,2.057,0,.594-.266.991-.9,1s-.907-.38-.929-.972c-.014-.355,0-.711-.006-1.067-.012-.846.214-1.716-.959-2.149a1.753,1.753,0,0,1-.869-1.754c0-.889-.01-1.778,0-2.667a2.1,2.1,0,0,1,1.321-2.049.742.742,0,0,0,.513-.861c-.024-.66-.011-1.321,0-1.981.008-.619.269-1.051.943-1.039.63.012.881.423.886,1.013,0,.381,0,.762,0,1.143m0,5.1c0-.38,0-.76,0-1.14.01-.618-.4-.672-.87-.668s-.957-.017-.96.659c0,.76,0,1.52,0,2.281,0,.473.214.678.687.706.988.058,1.143-.074,1.146-1.077q0-.38,0-.76" transform="translate(-49.656 -12.373)" fill="#1e3556"/>
  </g>
</svg>
