<svg id="clishcoin-solid" xmlns="http://www.w3.org/2000/svg" xmlns:xlink="http://www.w3.org/1999/xlink" width="28.864" height="25.207" viewBox="0 0 28.864 25.207">
  <defs>
    <clipPath id="clip-path">
      <rect id="Rectangle_4667" data-name="Rectangle 4667" width="28.864" height="25.206" fill="none"/>
    </clipPath>
  </defs>
  <g id="Mask_Group_703" data-name="Mask Group 703" clip-path="url(#clip-path)">
    <path id="Path_430" data-name="Path 430" d="M15.712,25.2q-5.4,0-10.792,0C1.8,25.2.006,23.416,0,20.3Q0,11.138.006,1.979A1.779,1.779,0,0,1,2.532.174,1.961,1.961,0,0,1,3.622,2.226q-.009,5.729,0,11.459,0,3.317,0,6.634c0,1.065.21,1.273,1.283,1.273q10.792,0,21.585,0a2.6,2.6,0,0,1,1.591.344,1.777,1.777,0,0,1,.708,1.994A1.707,1.707,0,0,1,27.033,25.2c-3.774.01-7.547,0-11.321.005" transform="translate(0 0)" fill="#a6aacc"/>
    <path id="Path_431" data-name="Path 431" d="M29.2,15.03c0,1.155.007,2.311,0,3.466a1.665,1.665,0,0,1-1.378,1.878.5.5,0,0,0-.43.574c.013.7,0,1.406,0,2.11,0,.563-.254.928-.846.933-.625.006-.9-.357-.893-.963,0-.678-.012-1.357.005-2.035a.521.521,0,0,0-.453-.627,1.665,1.665,0,0,1-1.37-1.883q-.007-3.467,0-6.933a1.653,1.653,0,0,1,1.386-1.865c.347-.095.442-.243.436-.565-.013-.7,0-1.406,0-2.11,0-.609.291-.969.9-.956.584.012.834.391.835.952,0,.7.009,1.407,0,2.11a.491.491,0,0,0,.437.569,1.641,1.641,0,0,1,1.369,1.8c.012,1.18,0,2.361,0,3.542" transform="translate(-16.601 -4.218)" fill="#5b67ca"/>
    <path id="Path_432" data-name="Path 432" d="M47.515,8.233c0-.853-.013-1.707,0-2.56A1.7,1.7,0,0,1,48.935,3.74.455.455,0,0,0,49.3,3.2c0-.677-.021-1.356.012-2.032C49.34.6,49.53.119,50.227.11c.586-.007.871.363.88,1.14.007.627.018,1.256,0,1.882-.012.358.1.513.47.617a1.657,1.657,0,0,1,1.349,1.826q.019,2.6,0,5.2a1.659,1.659,0,0,1-1.4,1.86.5.5,0,0,0-.422.583c.013.7,0,1.406,0,2.108a.825.825,0,0,1-.779.934.815.815,0,0,1-.976-.809c-.059-.723-.06-1.453-.046-2.179a.559.559,0,0,0-.5-.669,1.639,1.639,0,0,1-1.282-1.731c-.028-.878-.006-1.757-.006-2.635h0" transform="translate(-33.102 -0.076)" fill="#a6aacc"/>
    <path id="Path_433" data-name="Path 433" d="M74.947,19.994a3.812,3.812,0,0,1,0,.527c-.087.62.056,1,.768,1.172a1.413,1.413,0,0,1,1.027,1.435c.03,1.3.035,2.611,0,3.916a1.568,1.568,0,0,1-1.271,1.578.586.586,0,0,0-.532.722c.032.651.013,1.305,0,1.958-.007.547-.243.932-.829.971-.634.042-.927-.351-.961-.919-.041-.7-.034-1.406-.012-2.108.012-.362-.1-.511-.467-.615a1.644,1.644,0,0,1-1.322-1.772c-.017-1.155-.015-2.31,0-3.465a1.656,1.656,0,0,1,1.357-1.821c.333-.1.441-.236.432-.567-.019-.677-.019-1.356,0-2.033.02-.588.248-1.053.93-1.038s.875.482.873,1.079c0,.326,0,.653,0,.979" transform="translate(-49.707 -12.496)" fill="#5b67ca"/>
  </g>
</svg>
