<svg xmlns="http://www.w3.org/2000/svg" width="21.316" height="21.316" viewBox="0 0 21.316 21.316">
  <g id="Group_561" data-name="Group 561" transform="translate(-1.342 -1.342)">
    <g id="Group_561-2" data-name="Group 561">
      <path id="Path_327" data-name="Path 327" d="M13.5,2.794l.875,1.026a2,2,0,0,0,1.69.695L17.41,4.4a2,2,0,0,1,2.162,2.152L19.465,7.9a2,2,0,0,0,.7,1.687l1.029.869a2,2,0,0,1,.008,3.05l-1.026.875a2,2,0,0,0-.695,1.69L19.6,17.41a2,2,0,0,1-2.152,2.162L16.1,19.465a2,2,0,0,0-1.687.7L13.548,21.2a2,2,0,0,1-3.05.008L9.623,20.18a2,2,0,0,0-1.69-.695L6.59,19.6a2,2,0,0,1-2.162-2.152L4.535,16.1a2,2,0,0,0-.7-1.687L2.8,13.548a2,2,0,0,1-.008-3.05L3.82,9.623a2,2,0,0,0,.695-1.69L4.4,6.59A2,2,0,0,1,6.553,4.428L7.9,4.535a2,2,0,0,0,1.687-.7L10.452,2.8A2,2,0,0,1,13.5,2.794Z" fill="none" stroke="#2f2f2f" stroke-linecap="round" stroke-linejoin="round" stroke-width="1.5"/>
      <circle id="Ellipse_25" data-name="Ellipse 25" cx="3" cy="3" r="3" transform="translate(9 9)" fill="none" stroke="#2f2f2f" stroke-linecap="round" stroke-linejoin="round" stroke-width="1.5"/>
    </g>
  </g>
</svg>
