<svg id="cuentas-solid" xmlns="http://www.w3.org/2000/svg" xmlns:xlink="http://www.w3.org/1999/xlink" width="31.951" height="27.872" viewBox="0 0 31.951 27.872">
  <defs>
    <clipPath id="clip-path">
      <rect id="Rectangle_4669" data-name="Rectangle 4669" width="31.951" height="27.872" fill="#5b67ca"/>
    </clipPath>
  </defs>
  <g id="Group_708" data-name="Group 708" clip-path="url(#clip-path)">
    <path id="Path_436" data-name="Path 436" d="M29.9,14.38A4.781,4.781,0,0,1,32,18.885c-.07,4.135-.02,8.273-.022,12.409,0,2.932-1.606,4.547-4.525,4.548q-11.419,0-22.838,0c-2.929,0-4.535-1.607-4.537-4.534q0-9.287,0-18.573c0-.248.026-.5.04-.745.437.347.581.923,1.04,1.268a4.236,4.236,0,0,0,2.76.611c7.6,0,15.2.057,22.8.074a8.888,8.888,0,0,1,3.184.435m-3.934,8.532A1.959,1.959,0,0,0,24,24.948a1.931,1.931,0,0,0,2.074,1.914,1.892,1.892,0,0,0,1.907-1.983,1.918,1.918,0,0,0-2.017-1.968" transform="translate(-0.05 -7.972)" fill="#5b67ca"/>
    <path id="Path_437" data-name="Path 437" d="M29.848,6.407a8.89,8.89,0,0,0-3.184-.435c-7.6-.017-15.2-.071-22.8-.074a4.236,4.236,0,0,1-2.759-.611C.648,4.942.5,4.366.068,4.018-.3,1.865.875.236,2.725.022A7.257,7.257,0,0,1,3.558,0Q14.974,0,26.39,0c2.382,0,3.541,1.139,3.528,3.5a17.931,17.931,0,0,1-.071,2.9" transform="translate(0 0)" fill="#a6aacc"/>
    <path id="Path_438" data-name="Path 438" d="M73.428,44.576a1.918,1.918,0,0,1,2.017,1.968,1.892,1.892,0,0,1-1.907,1.983,1.931,1.931,0,0,1-2.074-1.914,1.959,1.959,0,0,1,1.965-2.037" transform="translate(-47.514 -29.637)" fill="#f9f9fa"/>
  </g>
</svg>
