<svg id="cuentas-light" xmlns="http://www.w3.org/2000/svg" xmlns:xlink="http://www.w3.org/1999/xlink" width="30.92" height="27.017" viewBox="0 0 30.92 27.017">
  <defs>
    <clipPath id="clip-path">
      <rect id="Rectangle_4668" data-name="Rectangle 4668" width="30.92" height="27.017" fill="none"/>
    </clipPath>
  </defs>
  <g id="Group_704" data-name="Group 704" clip-path="url(#clip-path)">
    <path id="Path_434" data-name="Path 434" d="M16.271.006q5.617,0,11.234,0a1.685,1.685,0,0,1,1.09.2.913.913,0,0,1,.354.93.793.793,0,0,1-.647.735,5.641,5.641,0,0,1-.963.065q-10.91,0-21.821,0C3,1.944,1.949,3.008,1.949,5.54q0,8.033,0,16.065c0,2.358,1.1,3.459,3.459,3.46q10.062,0,20.124,0c2.325,0,3.438-1.1,3.44-3.4q.005-6.216,0-12.432c0-2.346-1.106-3.433-3.483-3.434q-8.97,0-17.941,0a7.514,7.514,0,0,1-.807-.017.887.887,0,0,1-.906-.938.892.892,0,0,1,.883-.961,5.024,5.024,0,0,1,.645-.019q9.173,0,18.346,0a4.947,4.947,0,0,1,4.2,1.842,4.9,4.9,0,0,1,1,3.09c.009,4.413.026,8.826,0,13.239a4.679,4.679,0,0,1-4.92,4.952q-10.506.059-21.012,0a4.694,4.694,0,0,1-4.954-5q-.035-8.476,0-16.952A4.74,4.74,0,0,1,5.118.011c3.717-.021,7.435,0,11.152-.005" transform="translate(0 0)" fill="#203858"/>
    <path id="Path_435" data-name="Path 435" d="M69.82,44.534A1.436,1.436,0,0,1,68.4,45.975a1.434,1.434,0,1,1-.012-2.867,1.428,1.428,0,0,1,1.434,1.426" transform="translate(-45.207 -29.108)" fill="#233a5a"/>
  </g>
</svg>
