<svg id="History-light" xmlns="http://www.w3.org/2000/svg" xmlns:xlink="http://www.w3.org/1999/xlink" width="26" height="26.469" viewBox="0 0 26 26.469">
  <defs>
    <clipPath id="clip-path">
      <rect id="Rectangle_4664" data-name="Rectangle 4664" width="26" height="26.469" fill="none"/>
    </clipPath>
  </defs>
  <g id="Group_697" data-name="Group 697" clip-path="url(#clip-path)">
    <path id="Path_420" data-name="Path 420" d="M1.634,6.537A17.51,17.51,0,0,1,4.85,2.964,12.418,12.418,0,0,1,17.674.956a12.423,12.423,0,0,1,8.205,10.535,13.087,13.087,0,0,1-9.108,14.431,13.074,13.074,0,0,1-14-4.477c-.448-.591-.4-1.211.117-1.472.547-.274.9.034,1.214.442a11.349,11.349,0,0,0,4.337,3.46,11.418,11.418,0,0,0,15.8-8.728A11.376,11.376,0,0,0,3.06,7.665c-.288.56-.187.666.4.649,1.2-.036,2.405-.006,3.608-.012.563,0,1,.154,1.049.807.039.566-.315.846-1.061.848q-3,.009-5.991,0C.255,9.954.008,9.707,0,8.888Q-.007,5.822,0,2.756c0-.682.3-1.051.807-1.052s.812.357.819,1.049c.011,1.261,0,2.522,0,3.783" transform="translate(0 0)" fill="#1e3556"/>
    <path id="Path_421" data-name="Path 421" d="M44.408,27.749c0-.872-.007-1.744,0-2.616.008-.7.331-1.1.857-1.1.544,0,.81.355.814,1.112.007,1.514.017,3.029-.008,4.543a1.29,1.29,0,0,0,.424,1.022c1.034,1.03,2.044,2.085,3.063,3.131a4.734,4.734,0,0,1,.371.4.744.744,0,0,1-.011,1.058.689.689,0,0,1-1.082.053q-2.13-2.127-4.23-4.285a1.032,1.032,0,0,1-.2-.778c0-.849,0-1.7,0-2.547" transform="translate(-32.256 -17.379)" fill="#1c3455"/>
  </g>
</svg>
