<svg id="History-solid" xmlns="http://www.w3.org/2000/svg" xmlns:xlink="http://www.w3.org/1999/xlink" width="27.49" height="27.045" viewBox="0 0 27.49 27.045">
  <defs>
    <clipPath id="clip-path">
      <rect id="Rectangle_4663" data-name="Rectangle 4663" width="27.49" height="27.045" fill="none"/>
    </clipPath>
  </defs>
  <g id="Group_695" data-name="Group 695" clip-path="url(#clip-path)">
    <path id="Path_418" data-name="Path 418" d="M0,5.905c0-.9-.007-1.793,0-2.69A1.261,1.261,0,0,1,.724,1.936,1.346,1.346,0,0,1,2.249,2.2c.474.43.936.876,1.371,1.344.312.337.532.33.878.017A13.363,13.363,0,0,1,14.07,0,13.591,13.591,0,0,1,27.154,10.738a12.774,12.774,0,0,1-3.113,11.706,13.491,13.491,0,0,1-11.42,4.569,12.711,12.711,0,0,1-6.583-2.3,1.694,1.694,0,0,1-.587-2.348A1.628,1.628,0,0,1,7.868,21.9,11.032,11.032,0,0,0,14.3,23.648a10.185,10.185,0,0,0,9.6-8.637A9.819,9.819,0,0,0,21.42,6.759,10.447,10.447,0,0,0,6.943,5.91c-.37.325-.424.551-.026.886s.746.729,1.119,1.094a1.287,1.287,0,0,1,.344,1.427,1.177,1.177,0,0,1-1.138.833c-1.977.032-3.957.054-5.933-.008C.437,10.115.022,9.555.008,8.666c-.015-.92,0-1.84,0-2.76" transform="translate(0 0)" fill="#a6aacc"/>
    <path id="Path_419" data-name="Path 419" d="M43.331,27.857c0-.85-.008-1.7,0-2.549.012-.969.505-1.526,1.316-1.509.787.016,1.25.552,1.256,1.49.009,1.369.018,2.738-.007,4.106a1.291,1.291,0,0,0,.426,1.054c.993.952,1.962,1.929,2.92,2.916.67.69.661,1.35.019,1.9a1.11,1.11,0,0,1-1.61-.015c-1.359-1.29-2.682-2.618-4.014-3.936a1.194,1.194,0,0,1-.31-.912c.007-.85,0-1.7,0-2.549" transform="translate(-30.877 -17.024)" fill="#5b67ca"/>
  </g>
</svg>
