<svg id="home-solid" xmlns="http://www.w3.org/2000/svg" width="29" height="25.766" viewBox="0 0 29 25.766">
  <g id="Group_692" data-name="Group 692">
    <g id="Group_693" data-name="Group 693" transform="translate(0 0)">
      <g id="Group_694" data-name="Group 694" transform="translate(0)">
        <path id="Path_416" data-name="Path 416" d="M34.264,24.438c-.254.214-.134.5-.135.756,0,2.983.009,5.967.011,8.95a2.018,2.018,0,0,1-2.308,2.3q-1.75,0-3.5,0A2.08,2.08,0,0,1,26.052,34.2c-.017-1.323,0-2.647-.005-3.97,0-1.244-.551-1.817-1.794-1.846-.942-.022-1.886-.028-2.827,0-1.213.038-1.727.6-1.755,1.806a39.186,39.186,0,0,1-.09,4.567,1.933,1.933,0,0,1-1.951,1.684q-1.986.02-3.972,0a1.96,1.96,0,0,1-2.052-2.1c-.014-3.05,0-6.1-.011-9.152,0-.254.111-.543-.136-.759.263-.241.52-.487.789-.721,3.346-2.92,6.7-5.83,10.032-8.767a.716.716,0,0,1,1.16,0c1.021.944,2.087,1.839,3.134,2.755l7.69,6.732" transform="translate(-8.358 -10.687)" fill="#a6aacc"/>
        <path id="Path_417" data-name="Path 417" d="M25.9,13.75l-7.69-6.732C17.169,6.1,16.1,5.207,15.082,4.264a.716.716,0,0,0-1.16,0C10.59,7.2,7.235,10.105,3.89,13.025c-.268.234-.526.48-.789.721-.193.152-.38.314-.582.454a1.568,1.568,0,0,1-2.076-.226,1.522,1.522,0,0,1-.109-2.027,4.181,4.181,0,0,1,.573-.566Q6.933,6.1,12.965.83c1.266-1.107,1.8-1.107,3.071,0,1.587,1.389,3.17,2.783,4.8,4.215a4.019,4.019,0,0,0,.088-1.456c.026-1.408.561-1.956,1.961-1.963.4,0,.809-.009,1.212,0a1.538,1.538,0,0,1,1.666,1.69c.016,1.818.018,3.635,0,5.453a1.1,1.1,0,0,0,.438.975c.681.549,1.333,1.134,1.99,1.713.913.8,1.063,1.706.419,2.458s-1.6.748-2.54-.049c-.051-.043-.107-.08-.16-.12" transform="translate(0.001 0)" fill="#5b67ca"/>
        <rect id="Rectangle_4662" data-name="Rectangle 4662" width="29" height="25.766" transform="translate(0)" fill="none"/>
      </g>
    </g>
  </g>
</svg>
