<svg id="home-light" xmlns="http://www.w3.org/2000/svg" xmlns:xlink="http://www.w3.org/1999/xlink" width="33.237" height="29.508" viewBox="0 0 33.237 29.508">
  <defs>
    <clipPath id="clip-path">
      <rect id="Rectangle_4661" data-name="Rectangle 4661" width="33.237" height="29.508" fill="none"/>
    </clipPath>
  </defs>
  <g id="Group_689" data-name="Group 689" clip-path="url(#clip-path)">
    <path id="Path_415" data-name="Path 415" d="M3.708,13.5c-.743.66-1.349,1.206-1.964,1.742-.466.406-.971.639-1.5.114-.405-.4-.313-.965.258-1.47Q8.142,7.139,15.792.412c.654-.575,1.05-.545,1.755.071,1.489,1.3,2.97,2.611,4.6,4.05,0-.484-.019-.823,0-1.16a1.489,1.489,0,0,1,1.621-1.581c1.389-.031,2.78-.034,4.169,0a1.462,1.462,0,0,1,1.6,1.664q.021,3.51,0,7.021a1.136,1.136,0,0,0,.45.981c.927.776,1.827,1.584,2.726,2.392.613.552.687,1.053.228,1.525-.514.529-.992.231-1.422-.133-.624-.528-1.224-1.084-1.842-1.635-.227.234-.125.475-.125.686-.008,3.395,0,6.79-.007,10.185-.006,3.193-1.838,5.023-5.036,5.027q-7.875.008-15.751,0c-3.237,0-5.045-1.827-5.049-5.088,0-3.572,0-7.143,0-10.918M21.824,27.667c.925-.036,1.852,0,2.778-.012a2.81,2.81,0,0,0,3.091-3.121c.008-1.954,0-3.908,0-5.862,0-2.031-.012-4.062.01-6.092a1.239,1.239,0,0,0-.454-1.059q-5.1-4.477-10.171-8.993c-.319-.284-.516-.356-.882-.03Q11.077,7.071,5.92,11.6a.869.869,0,0,0-.371.707c.013,4.19-.014,8.381.025,12.571a2.7,2.7,0,0,0,2.809,2.768c.977.029,1.957-.034,2.932.022ZM27.7,9.434c0-1.883-.011-3.551.008-5.219,0-.394-.092-.557-.511-.525-.46.034-.924.007-1.387.007-1.812,0-1.815,0-1.8,1.846,0,.272-.1.579.151.8,1.13.991,2.264,1.977,3.54,3.09" transform="translate(0 0)" fill="#1e3556"/>
  </g>
</svg>
